<svg xmlns="http://www.w3.org/2000/svg" viewBox="0 0 1600 900" role="img" aria-labelledby="title desc">
  <title id="title">Mall Dungeon Placeholder</title>
  <desc id="desc">Atmospheric placeholder for mall dungeon routes until final mall art is delivered.</desc>
  <defs>
    <linearGradient id="bg" x1="0" x2="0" y1="0" y2="1">
      <stop offset="0%" stop-color="#1a2018"/>
      <stop offset="100%" stop-color="#090b08"/>
    </linearGradient>
    <filter id="blur"><feGaussianBlur stdDeviation="22"/></filter>
  </defs>
  <rect width="1600" height="900" fill="url(#bg)"/>
  <rect width="1600" height="900" fill="#060806" opacity="0.3"/>
  <polygon points="420,900 620,280 980,280 1180,900" fill="#0a100c"/>
  <rect x="210" y="248" width="220" height="400" fill="#0b120d" opacity="0.86"/>
  <rect x="1170" y="248" width="220" height="400" fill="#0b120d" opacity="0.86"/>
  <rect x="590" y="334" width="158" height="224" fill="#111814" stroke="#27392d" stroke-width="4" opacity="0.86"/>
  <rect x="846" y="334" width="162" height="224" fill="#111814" stroke="#27392d" stroke-width="4" opacity="0.86"/>
  <path d="M580 280 H1020" stroke="#2b4534" stroke-width="8" opacity="0.48"/>
  <path d="M500 708 H1100" stroke="#1d2c22" stroke-width="14" opacity="0.38"/>
  <path d="M642 558 L770 760" stroke="#213527" stroke-width="8" opacity="0.7"/>
  <path d="M958 558 L830 760" stroke="#213527" stroke-width="8" opacity="0.7"/>
  <circle cx="800" cy="278" r="90" fill="#8a0303" opacity="0.08" filter="url(#blur)"/>
  <circle cx="510" cy="202" r="80" fill="#d4a017" opacity="0.05" filter="url(#blur)"/>
  <circle cx="1102" cy="196" r="80" fill="#d4a017" opacity="0.05" filter="url(#blur)"/>
  <rect x="58" y="58" width="1484" height="784" rx="16" fill="none" stroke="#24352a" stroke-width="2" opacity="0.65"/>
  <text x="110" y="124" fill="#d0cfc5" font-family="Courier New, monospace" font-size="22" letter-spacing="3" opacity="0.64">MERIDIAN MALL</text>
  <text x="110" y="154" fill="#7b8e80" font-family="Courier New, monospace" font-size="14" letter-spacing="2" opacity="0.72">placeholder retail ruin for mall dungeon routes</text>
  <text x="1110" y="806" fill="#7b8e80" font-family="Courier New, monospace" font-size="14" letter-spacing="2" opacity="0.64">final mall scene pending Gemini visual pass</text>
</svg>
